:SAMPLES-PER-SECOND 30
:FULLY-SPECIFIED
:DEGREES
246
root  -2.08413 18.4135 33.9973 -122.806 5.58839 -179.996
RightUpLeg  -82.8795 -1.63263 8.82552
RightLeg  126.559 28.2574 -15.5173
RightFoot  -8.4455 0.200048 -4.3893
RightToes  -5.82073e-011 -3.18055e-015 -2.98177e-016
Spine  27.5767 1.43648 6.84333
Spine1  4.01294 1.92232 5.10031
HEad  -26.6326 -1.35165 5.33249
LeftShoulder1  -3.88251e-019 9.70628e-020 -3.87848e-018
LeftArm  -2.47414 -31.7535 -71.5063
LeftForeArm  -2.20937 -10.3618 -2.61553
LeftHand  -9.60334 -9.86045 66.7878
RightShoulder  4.75753 8.65879 24.2226
RightArm  5.92258 9.15704 55.2996
RightForeArm  24.5327 11.7329 -4.02231
RightHand  -14.2117 10.719 -83.5527
LeftUpLeg  -36.6959 2.08235 -14.1429
LeftLeg  84.0006 -13.1857 29.3951
LeftFoot  -8.59326 0.500532 -13.2502
LeftToes  -2.27483e-011 -5.53417e-011 9.36564e-012
247
root  -1.8815 18.3202 33.2561 -121.549 3.89647 -178.272
RightUpLeg  -82.131 -0.0902936 11.9645
RightLeg  124.199 28.5298 -17.0037
RightFoot  -4.8968 0.285413 -3.79413
RightToes  -5.82073e-011 -3.18055e-015 -2.98177e-016
Spine  25.9415 2.2429 8.75164
Spine1  5.29149 3.39361 3.64255
HEad  -27.7294 -2.69554 5.60809
LeftShoulder1  -3.88251e-019 9.70628e-020 -3.87848e-018
LeftArm  -1.03335 -31.5829 -74.5423
LeftForeArm  -0.143536 -10.0468 -3.20182
LeftHand  -10.3818 -10.3924 69.069
RightShoulder  4.97636 8.86299 25.1172
RightArm  4.1461 6.44943 53.038
RightForeArm  24.4815 11.5101 -4.6526
RightHand  -14.4823 10.8363 -84.235
LeftUpLeg  -36.2095 3.22806 -11.0313
LeftLeg  82.4013 -12.3313 29.1424
LeftFoot  -8.77605 0.452653 -12.5702
LeftToes  -2.27483e-011 -5.53417e-011 9.36564e-012
248
root  -1.68536 18.2807 32.4287 -119.542 3.05725 -174.726
RightUpLeg  -81.2846 2.8287 14.4944
RightLeg  122.198 27.2329 -16.4625
RightFoot  -2.90476 0.278823 -3.05453
RightToes  -5.82073e-011 -3.18055e-015 -2.98177e-016
Spine  24.5748 3.6537 11.3132
Spine1  5.60425 5.99044 0.557601
HEad  -28.4888 -4.47258 5.21061
LeftShoulder1  -3.88251e-019 9.70628e-020 -3.87848e-018
LeftArm  1.40242 -31.4583 -76.9737
LeftForeArm  1.08939 -9.54267 -4.41357
LeftHand  -10.9085 -10.6222 70.9407
RightShoulder  5.3084 9.08924 26.6064
RightArm  3.47207 3.6782 50.4027
RightForeArm  24.3382 12.0919 -5.05334
RightHand  -14.2285 10.934 -82.8599
LeftUpLeg  -36.4011 6.65835 -7.59497
LeftLeg  80.7144 -11.4745 27.7372
LeftFoot  -7.9515 0.527035 -12.1933
LeftToes  -2.27483e-011 -5.53417e-011 9.36564e-012
249
root  -1.51635 18.2555 31.5009 -118.189 3.3421 -171.347
RightUpLeg  -79.1295 5.28589 14.9458
RightLeg  121.029 24.8101 -13.8391
RightFoot  -1.82993 0.266014 -2.68075
RightToes  -5.82073e-011 -3.18055e-015 -2.98177e-016
Spine  24.4059 4.82085 12.6606
Spine1  4.79552 8.39631 -3.41178
HEad  -28.5593 -6.0579 4.10599
LeftShoulder1  -3.88251e-019 9.70628e-020 -3.87848e-018
LeftArm  2.76208 -31.0743 -78.5221
LeftForeArm  2.50225 -8.92152 -5.57479
LeftHand  -11.3279 -10.8058 72.3618
RightShoulder  5.57338 9.22186 27.8607
RightArm  4.68114 0.162403 48.1995
RightForeArm  22.7387 14.0557 -5.52507
RightHand  -13.1348 10.8893 -78.4187
LeftUpLeg  -35.9785 11.1969 -5.35569
LeftLeg  79.1798 -10.8437 25.5333
LeftFoot  -4.59738 0.795407 -10.9199
LeftToes  -2.27483e-011 -5.53417e-011 9.36564e-012
250
root  -1.30568 18.2653 30.6347 -117.848 3.93982 -170.027
RightUpLeg  -75.927 6.07691 13.8246
RightLeg  120.208 22.2989 -10.5903
RightFoot  -2.00921 0.222686 -2.27348
RightToes  -5.82073e-011 -3.18055e-015 -2.98177e-016
Spine  24.7179 5.11371 12.0216
Spine1  3.80508 9.35781 -6.77419
HEad  -28.4085 -7.0715 3.23452
LeftShoulder1  -3.88251e-019 9.70628e-020 -3.87848e-018
LeftArm  2.88591 -30.3067 -79.3076
LeftForeArm  4.99635 -8.21778 -6.07403
LeftHand  -11.7567 -11.0795 73.4622
RightShoulder  5.5756 9.17835 27.9621
RightArm  7.13892 -4.90612 47.6384
RightForeArm  18.6662 17.0585 -7.5397
RightHand  -11.7941 10.829 -72.6535
LeftUpLeg  -35.5859 14.1289 -4.37238
LeftLeg  78.7621 -10.8449 23.0924
LeftFoot  -0.00861562 1.11797 -9.68114
LeftToes  -2.27483e-011 -5.53417e-011 9.36564e-012
251
root  -1.02097 18.3529 29.9911 -117.445 3.38698 -170.527
RightUpLeg  -73.334 5.71655 13.2934
RightLeg  118.885 20.587 -8.38456
RightFoot  -3.02727 0.109822 -1.19229
RightToes  -5.82073e-011 -3.18055e-015 -2.98177e-016
Spine  24.1297 4.69716 10.8685
Spine1  3.40177 8.9506 -8.55584
HEad  -28.6517 -7.68371 3.32076
LeftShoulder1  -3.88251e-019 9.70628e-020 -3.87848e-018
LeftArm  2.96391 -29.3266 -79.591
LeftForeArm  7.95875 -7.77019 -5.90975
LeftHand  -12.1692 -11.3887 74.3173
RightShoulder  5.50532 9.08624 27.7546
RightArm  8.53987 -10.0157 48.1947
RightForeArm  14.4471 20.4555 -10.9315
RightHand  -11.1052 10.9498 -68.9865
LeftUpLeg  -37.1511 14.0785 -3.30828
LeftLeg  80.3153 -11.5922 21.1288
LeftFoot  2.20436 1.35392 -10.0158
LeftToes  -2.27483e-011 -5.53417e-011 9.36564e-012
252
root  -0.720148 18.527 29.5168 -116.753 1.18803 -171.545
RightUpLeg  -71.4872 4.93377 14.5047
RightLeg  116.818 19.6981 -7.47143
RightFoot  -3.94654 -0.0345253 0.49631
RightToes  -5.82073e-011 -3.18055e-015 -2.98177e-016
Spine  23.4147 3.7187 10.8443
Spine1  2.71537 7.81363 -9.26606
HEad  -29.0713 -8.07748 4.17062
LeftShoulder1  -3.88251e-019 9.70628e-020 -3.87848e-018
LeftArm  3.14655 -28.2564 -79.5524
LeftForeArm  10.6028 -7.55472 -5.54499
LeftHand  -12.5433 -11.6891 74.9912
RightShoulder  5.71846 9.20374 28.704
RightArm  7.46499 -12.8114 47.8593
RightForeArm  13.0629 24.5349 -13.82
RightHand  -11.161 11.1702 -68.52
LeftUpLeg  -40.5926 12.118 -1.10386
LeftLeg  83.6536 -12.8161 20.2212
LeftFoot  0.908261 1.36546 -11.0662
LeftToes  -2.27483e-011 -5.53417e-011 9.36564e-012
253
root  -0.453111 18.7568 29.0579 -116.78 -1.52631 -172.786
RightUpLeg  -69.0491 3.65926 16.2192
RightLeg  114.523 19.0598 -6.89888
RightFoot  -4.66735 -0.126919 1.80532
RightToes  -5.82073e-011 -3.18055e-015 -2.98177e-016
Spine  24.6418 2.12624 11.2726
Spine1  -0.00930443 6.07094 -9.80861
HEad  -28.6457 -8.04983 5.15965
LeftShoulder1  -3.88251e-019 9.70628e-020 -3.87848e-018
LeftArm  2.37922 -26.8698 -78.5719
LeftForeArm  13.3738 -7.28292 -5.72945
LeftHand  -12.9356 -12.04 75.5489
RightShoulder  6.32799 9.70583 31.0529
RightArm  6.78524 -12.737 45.7762
RightForeArm  12.3103 29.0753 -16.1693
RightHand  -11.2692 11.2346 -68.8348
LeftUpLeg  -44.14 9.88589 1.56916
LeftLeg  88.0824 -14.3517 20.2871
LeftFoot  -1.54883 1.12011 -11.0949
LeftToes  -2.27483e-011 -5.53417e-011 9.36564e-012
254
root  -0.228172 18.921 28.6508 -116.745 -3.67786 -174.918
RightUpLeg  -67.1812 1.54648 16.951
RightLeg  112.938 18.4752 -6.1243
RightFoot  -5.58583 -0.122604 2.00083
RightToes  -5.82073e-011 -3.18055e-015 -2.98177e-016
Spine  25.4237 1.03408 9.86585
Spine1  -1.9739 4.10725 -7.87437
HEad  -28.2455 -8.07434 5.28545
LeftShoulder1  -3.88251e-019 9.70628e-020 -3.87848e-018
LeftArm  0.733368 -25.6353 -78.2611
LeftForeArm  16.2079 -6.9343 -6.22626
LeftHand  -13.3403 -12.4271 76.017
RightShoulder  6.11171 9.65748 29.9608
RightArm  4.10673 -11.4881 45.9081
RightForeArm  11.5848 33.0823 -18.5426
RightHand  -10.9174 11.0901 -67.5898
LeftUpLeg  -48.6191 7.48696 3.00018
LeftLeg  93.8395 -16.3377 20.3189
LeftFoot  -3.66011 0.774035 -9.41334
LeftToes  -2.27483e-011 -5.53417e-011 9.36564e-012
255
root  -0.0565225 18.9603 28.3553 -116.511 -5.20956 -177.494
RightUpLeg  -66.1406 -1.00608 17.1026
RightLeg  112.132 18.1967 -5.71863
RightFoot  -6.52877 -0.0791617 1.61742
RightToes  -5.82073e-011 -3.18055e-015 -2.98177e-016
Spine  26.2106 -0.102458 8.46705
Spine1  -4.15136 2.19812 -6.6406
HEad  -27.578 -8.42616 5.64667
LeftShoulder1  -3.88251e-019 9.70628e-020 -3.87848e-018
LeftArm  -0.667089 -24.0866 -76.9291
LeftForeArm  18.453 -7.15864 -6.05166
LeftHand  -13.64 -12.6858 76.4381
RightShoulder  5.65766 9.46988 27.8223
RightArm  1.21667 -9.08462 46.4955
RightForeArm  9.34729 36.0786 -20.4298
RightHand  -10.1592 10.7013 -65.047
LeftUpLeg  -53.9146 4.75393 3.39932
LeftLeg  101.08 -18.481 18.9896
LeftFoot  -6.81866 0.281036 -5.60825
LeftToes  -2.27483e-011 -5.53417e-011 9.36564e-012
256
root  0.0834318 18.971 27.9881 -117.108 -5.78885 -179.377
RightUpLeg  -64.291 -3.00155 16.9047
RightLeg  111.128 18.2951 -6.18122
RightFoot  -6.81139 -0.0799196 1.71704
RightToes  -5.82073e-011 -3.18055e-015 -2.98177e-016
Spine  28.2057 -0.84264 7.12004
Spine1  -6.64022 0.985131 -6.31235
HEad  -26.9247 -9.17307 5.80656
LeftShoulder1  -3.88251e-019 9.70628e-020 -3.87848e-018
LeftArm  -0.730645 -21.145 -78.0148
LeftForeArm  19.8302 -8.19829 -5.42003
LeftHand  -13.7413 -12.7059 76.7904
RightShoulder  5.13281 9.27762 25.2157
RightArm  -1.13093 -5.0191 47.1236
RightForeArm  6.16269 36.8855 -20.8436
RightHand  -9.36727 10.084 -62.8737
LeftUpLeg  -57.9385 2.48857 3.21361
LeftLeg  108.594 -20.397 17.3473
LeftFoot  -13.9211 -0.0512698 -4.46204
LeftToes  -2.27483e-011 -5.53417e-011 9.36564e-012
257
root  0.172338 19.0582 27.483 -119.952 -5.45546 179.394
RightUpLeg  -59.7895 -4.87257 15.868
RightLeg  109.683 18.4215 -6.88228
RightFoot  -6.77803 -0.11538 2.33171
RightToes  -5.82073e-011 -3.18055e-015 -2.98177e-016
Spine  33.0686 -1.29447 5.81332
Spine1  -9.86366 0.363767 -6.61953
HEad  -26.2593 -10.3556 5.45737
LeftShoulder1  -3.88251e-019 9.70628e-020 -3.87848e-018
LeftArm  -2.52565 -19.8124 -77.2968
LeftForeArm  21.9834 -8.5034 -6.58958
LeftHand  -13.7699 -12.6439 77.1046
RightShoulder  4.72282 9.20954 22.9543
RightArm  -2.93978 0.651976 47.0194
RightForeArm  4.17821 34.9939 -19.4437
RightHand  -8.80982 9.47684 -61.7738
LeftUpLeg  -59.0499 0.64569 2.26452
LeftLeg  114.668 -22.1701 16.7605
LeftFoot  -21.5957 -0.281286 -2.66177
LeftToes  -2.27483e-011 -5.53417e-011 9.36564e-012
258
root  0.279184 19.0014 26.989 -120.529 -4.89207 179.713
RightUpLeg  -57.6101 -4.57889 15.8498
RightLeg  108.144 18.5839 -7.78796
RightFoot  -6.76811 -0.142829 2.81742
RightToes  -5.82073e-011 -3.18055e-015 -2.98177e-016
Spine  34.3803 -1.22695 5.99466
Spine1  -11.0512 0.668532 -9.37768
HEad  -26.1672 -11.5211 5.61054
LeftShoulder1  -3.88251e-019 9.70628e-020 -3.87848e-018
LeftArm  -2.57514 -19.3265 -77.4735
LeftForeArm  23.5891 -8.39144 -7.10264
LeftHand  -13.9159 -12.716 77.4687
RightShoulder  4.36937 9.12814 21.0045
RightArm  -6.27859 7.27636 47.2769
RightForeArm  5.07303 30.7008 -16.7918
RightHand  -8.41537 9.07965 -60.816
LeftUpLeg  -62.9196 0.864086 1.89014
LeftLeg  120.435 -23.8063 16.0018
LeftFoot  -27.6501 -0.445586 -3.01034
LeftToes  -2.27483e-011 -5.53417e-011 9.36564e-012
259
root  0.369784 18.899 26.4972 -120.406 -3.93834 179.967
RightUpLeg  -56.0256 -3.96903 15.363
RightLeg  106.773 18.5685 -8.26885
RightFoot  -7.26085 -0.121763 2.67539
RightToes  -5.82073e-011 -3.18055e-015 -2.98177e-016
Spine  34.2759 -0.908688 6.25404
Spine1  -10.6938 1.2525 -12.2569
HEad  -26.5245 -12.829 5.64994
LeftShoulder1  -3.88251e-019 9.70628e-020 -3.87848e-018
LeftArm  -2.03929 -19.6857 -77.9751
LeftForeArm  24.7607 -8.12348 -7.4755
LeftHand  -14.185 -12.8697 78.0647
RightShoulder  3.97389 8.95402 18.9267
RightArm  -11.1587 14.0044 47.6069
RightForeArm  6.6071 25.2473 -13.8506
RightHand  -7.86814 8.69615 -58.784
LeftUpLeg  -67.6654 1.11512 1.05244
LeftLeg  125.062 -24.6408 14.8118
LeftFoot  -30.6758 -0.334184 -1.55922
LeftToes  -2.27483e-011 -5.53417e-011 9.36564e-012
260
root  0.442729 18.7898 25.958 -120.132 -2.7959 -179.537
RightUpLeg  -54.402 -2.9951 14.7211
RightLeg  105.227 18.439 -8.55214
RightFoot  -7.70613 -0.0858593 2.1856
RightToes  -5.82073e-011 -3.18055e-015 -2.98177e-016
Spine  33.8113 -0.460838 6.81189
Spine1  -9.85521 2.13553 -15.1601
HEad  -26.8295 -14.0231 5.3769
LeftShoulder1  -3.88251e-019 9.70628e-020 -3.87848e-018
LeftArm  -1.17427 -19.6486 -78.6088
LeftForeArm  25.138 -8.49944 -7.49839
LeftHand  -14.3138 -12.8573 78.6169
RightShoulder  3.6839 8.8014 17.4006
RightArm  -14.8457 19.9434 48.1887
RightForeArm  4.2743 19.9018 -11.8866
RightHand  -7.01752 7.81799 -56.3585
LeftUpLeg  -72.163 1.34816 0.606907
LeftLeg  129.086 -23.0488 11.3476
LeftFoot  -35.4533 -1.14012 -5.15002
LeftToes  -2.27483e-011 -5.53417e-011 9.36564e-012
